<?xml version="1.0" standalone="no"?>
<!DOCTYPE svg PUBLIC "-//W3C//DTD SVG 20010904//EN"
 "http://www.w3.org/TR/2001/REC-SVG-20010904/DTD/svg10.dtd">
<svg version="1.0" xmlns="http://www.w3.org/2000/svg"
 width="512.000000pt" height="512.000000pt" viewBox="0 0 512.000000 512.000000"
 preserveAspectRatio="xMidYMid meet">

<g transform="translate(0.000000,512.000000) scale(0.100000,-0.100000)"
fill="#000000" stroke="none">
<path d="M325 4631 c-90 -22 -172 -90 -215 -176 l-25 -50 0 -1845 0 -1845 23
-45 c35 -72 75 -114 144 -151 l63 -34 2245 0 2245 0 63 34 c70 38 100 69 140
145 l27 51 0 1845 0 1845 -34 63 c-37 69 -79 109 -151 144 l-45 23 -2225 2
c-1224 0 -2238 -2 -2255 -6z m395 -231 l0 -80 -80 0 -80 0 0 80 0 80 80 0 80
0 0 -80z m320 0 l0 -80 -80 0 -80 0 0 80 0 80 80 0 80 0 0 -80z m3750 58 c45
-23 73 -59 85 -110 l7 -28 -1841 0 -1841 0 0 80 0 80 1773 0 1773 0 44 -22z
m90 -1991 l0 -1693 -23 -44 c-16 -33 -34 -51 -67 -67 l-44 -23 -2186 0 -2186
0 -44 22 c-33 17 -51 35 -68 68 l-22 44 0 1693 0 1693 2320 0 2320 0 0 -1693z"/>
<path d="M1067 3990 c-398 -67 -686 -427 -664 -830 7 -126 25 -197 77 -306 77
-160 214 -297 374 -374 104 -50 178 -69 296 -76 385 -25 726 223 826 601 26
97 26 304 0 395 -117 407 -504 658 -909 590z m53 -490 l0 -331 25 -24 c13 -14
35 -25 48 -25 14 0 159 56 323 124 l299 124 9 -27 c4 -14 8 -78 9 -141 0 -98
-4 -127 -26 -196 -44 -132 -123 -242 -232 -320 -252 -179 -582 -158 -814 51
-63 58 -137 175 -167 268 -23 69 -27 100 -27 197 -1 103 2 124 29 201 52 148
148 268 278 349 45 27 191 80 224 80 l22 0 0 -330z"/>
<path d="M3280 3760 l0 -80 720 0 720 0 0 80 0 80 -720 0 -720 0 0 -80z"/>
<path d="M2640 3440 l0 -80 1040 0 1040 0 0 80 0 80 -1040 0 -1040 0 0 -80z"/>
<path d="M2640 3120 l0 -80 1040 0 1040 0 0 80 0 80 -1040 0 -1040 0 0 -80z"/>
<path d="M2640 2800 l0 -80 1040 0 1040 0 0 80 0 80 -1040 0 -1040 0 0 -80z"/>
<path d="M2345 2375 l-25 -24 0 -751 0 -751 25 -24 24 -25 1151 0 1151 0 24
25 25 24 0 751 0 751 -25 24 -24 25 -1151 0 -1151 0 -24 -25z m2215 -775 l0
-640 -80 0 -80 0 0 535 0 536 -25 24 c-24 25 -26 25 -215 25 -189 0 -191 0
-215 -25 -23 -22 -25 -32 -25 -120 l0 -95 -135 0 c-131 0 -137 -1 -160 -25
-25 -24 -25 -27 -25 -200 l0 -175 -80 0 -80 0 0 175 c0 239 15 225 -240 225
-189 0 -191 0 -215 -25 -23 -22 -25 -32 -25 -120 l0 -95 -135 0 c-131 0 -137
-1 -160 -25 l-25 -24 0 -296 0 -295 -80 0 -80 0 0 640 0 640 1040 0 1040 0 0
-640z m-1280 -280 l0 -360 -80 0 -80 0 0 360 0 360 80 0 80 0 0 -360z m640 0
l0 -360 -80 0 -80 0 0 360 0 360 80 0 80 0 0 -360z m-320 -200 l0 -160 -80 0
-80 0 0 160 0 160 80 0 80 0 0 -160z"/>
<path d="M425 1895 c-25 -24 -25 -26 -25 -215 0 -257 -17 -240 240 -240 257 0
240 -17 240 240 0 257 17 240 -240 240 -189 0 -191 0 -215 -25z m295 -215 l0
-80 -80 0 -80 0 0 80 0 80 80 0 80 0 0 -80z"/>
<path d="M1040 1840 l0 -80 400 0 400 0 0 80 0 80 -400 0 -400 0 0 -80z"/>
<path d="M1040 1520 l0 -80 560 0 560 0 0 80 0 80 -560 0 -560 0 0 -80z"/>
<path d="M425 1255 c-25 -24 -25 -26 -25 -215 0 -257 -17 -240 240 -240 257 0
240 -17 240 240 0 257 17 240 -240 240 -189 0 -191 0 -215 -25z m295 -215 l0
-80 -80 0 -80 0 0 80 0 80 80 0 80 0 0 -80z"/>
<path d="M1040 1200 l0 -80 400 0 400 0 0 80 0 80 -400 0 -400 0 0 -80z"/>
<path d="M1040 880 l0 -80 560 0 560 0 0 80 0 80 -560 0 -560 0 0 -80z"/>
</g>
</svg>
