<svg xmlns="http://www.w3.org/2000/svg" xmlns:xlink="http://www.w3.org/1999/xlink" version="1.1" x="0px" y="0px" viewBox="7.5 7.5 50 62.5" enable-background="new 7.5 7.5 50 50" xml:space="preserve"><path d="M56.311,51.313H10.512c2.347-1.375,4.772-2.691,7.317-4.064c12.327-6.655,26.299-14.198,36.857-33.129  c0.135-0.241,0.048-0.546-0.193-0.68c-0.241-0.135-0.545-0.049-0.68,0.193C43.396,32.309,29.561,39.777,17.354,46.367  c-2.849,1.538-5.549,3.004-8.165,4.567V13.188c0-0.276-0.224-0.5-0.5-0.5s-0.5,0.224-0.5,0.5v38.625  c0,0.013,0.006,0.022,0.007,0.035c0.002,0.033,0.011,0.064,0.02,0.098s0.019,0.064,0.034,0.094c0.005,0.012,0.006,0.023,0.012,0.034  c0.007,0.013,0.021,0.017,0.029,0.028c0.035,0.048,0.077,0.087,0.126,0.12c0.018,0.012,0.032,0.025,0.051,0.034  c0.067,0.033,0.14,0.057,0.22,0.057h47.621c0.276,0,0.5-0.224,0.5-0.5S56.587,51.313,56.311,51.313z"/><circle cx="28.398" cy="26.58" r="1.532"/><circle cx="33.855" cy="25.548" r="1.532"/><circle cx="31.792" cy="30.612" r="1.532"/><circle cx="31.101" cy="21.396" r="1.532"/><circle cx="38.772" cy="22.904" r="1.532"/><circle cx="25.688" cy="22.905" r="1.532"/><circle cx="25.688" cy="31.204" r="1.532"/><circle cx="21.438" cy="26.988" r="1.532"/><circle cx="27.752" cy="35.322" r="1.532"/><circle cx="20.934" cy="34.288" r="1.532"/><circle cx="16.804" cy="30.613" r="1.532"/><circle cx="37.74" cy="28.548" r="1.532"/><circle cx="20.934" cy="39.995" r="1.532"/><path d="M45.571,43.53c0.098,0.098,0.226,0.146,0.354,0.146s0.256-0.049,0.354-0.146l1.591-1.591c0.195-0.195,0.195-0.512,0-0.707  l-1.591-1.591c-0.195-0.195-0.512-0.195-0.707,0l-1.591,1.591c-0.195,0.195-0.195,0.512,0,0.707L45.571,43.53z"/><path d="M45.001,38.443c0.128,0,0.256-0.049,0.354-0.146l1.591-1.59c0.094-0.094,0.146-0.221,0.146-0.354s-0.053-0.26-0.146-0.354  l-1.591-1.592c-0.188-0.188-0.52-0.188-0.707,0L43.057,36c-0.094,0.094-0.146,0.221-0.146,0.354s0.053,0.26,0.146,0.354l1.591,1.59  C44.745,38.395,44.873,38.443,45.001,38.443z"/><path d="M40.718,40.674l-1.591-1.591c-0.195-0.195-0.512-0.195-0.707,0l-1.591,1.591c-0.195,0.195-0.195,0.512,0,0.707l1.591,1.591  c0.098,0.098,0.226,0.146,0.354,0.146s0.256-0.049,0.354-0.146l1.591-1.591C40.913,41.186,40.913,40.869,40.718,40.674z"/><path d="M41.042,47.287c0.098,0.098,0.226,0.146,0.354,0.146s0.256-0.049,0.354-0.146l1.591-1.591c0.195-0.195,0.195-0.512,0-0.707  l-1.591-1.591c-0.195-0.195-0.512-0.195-0.707,0l-1.591,1.591c-0.195,0.195-0.195,0.512,0,0.707L41.042,47.287z"/><path d="M33.503,42.824l-1.591,1.59c-0.094,0.094-0.146,0.221-0.146,0.354s0.053,0.26,0.146,0.354l1.591,1.592  c0.094,0.094,0.221,0.146,0.354,0.146s0.26-0.053,0.354-0.146l1.591-1.592c0.094-0.094,0.146-0.221,0.146-0.354  s-0.053-0.26-0.146-0.354l-1.591-1.59C34.015,42.629,33.698,42.629,33.503,42.824z"/><path d="M50.898,38.298c0.098,0.098,0.226,0.146,0.354,0.146s0.256-0.049,0.354-0.146l1.591-1.591c0.195-0.195,0.195-0.512,0-0.707  l-1.591-1.591c-0.195-0.195-0.512-0.195-0.707,0L49.308,36c-0.195,0.195-0.195,0.512,0,0.707L50.898,38.298z"/><path d="M49.106,32.703c0.128,0,0.256-0.049,0.354-0.146l1.591-1.591c0.195-0.195,0.195-0.512,0-0.707l-1.591-1.591  c-0.195-0.195-0.512-0.195-0.707,0l-1.591,1.591c-0.195,0.195-0.195,0.512,0,0.707l1.591,1.591  C48.851,32.654,48.979,32.703,49.106,32.703z"/><text x="7.5" y="72.5" fill="#000000" font-size="5px" font-weight="bold" font-family="'Helvetica Neue', Helvetica, Arial-Unicode, Arial, Sans-serif">Created by Abd Majd</text><text x="7.5" y="77.5" fill="#000000" font-size="5px" font-weight="bold" font-family="'Helvetica Neue', Helvetica, Arial-Unicode, Arial, Sans-serif">from the Noun Project</text></svg>