<?xml version="1.0" encoding="iso-8859-1"?>
<!-- Uploaded to: SVG Repo, www.svgrepo.com, Generator: SVG Repo Mixer Tools -->
<svg fill="#000000" height="800px" width="800px" version="1.1" id="Layer_1" xmlns="http://www.w3.org/2000/svg" xmlns:xlink="http://www.w3.org/1999/xlink" 
	 viewBox="0 0 508 508" xml:space="preserve">
<g>
	<g>
		<path d="M254,0C162.9,0,88.9,74.1,88.9,165.1c0,86.4,146.9,326,153.1,336.2c2.6,4.2,7.1,6.7,12,6.7c4.9,0,9.4-2.5,12-6.7
			c6.2-10.2,153.1-249.7,153.1-336.2C419.1,74.1,345.1,0,254,0z M254,466.6c-15.1-25.4-34.7-59.4-54.2-95.9h15.7
			c7.8,0,14.1-6.3,14.1-14.1c0-7.8-6.3-14.1-14.1-14.1H185c-4.8-9.4-9.6-18.8-14.2-28.2h73c7.8,0,14.1-6.3,14.1-14.1
			c0-7.8-6.3-14.1-14.1-14.1h-86.6c-23.1-49.6-40.1-95-40.1-120.9c0-75.5,61.4-136.9,136.9-136.9s136.9,61.4,136.9,136.9
			C390.9,224.7,301.1,387.7,254,466.6z"/>
	</g>
</g>
<g>
	<g>
		<path d="M254,80c-47,0-85.2,38.2-85.2,85.2s38.2,85.2,85.2,85.2s85.2-38.2,85.2-85.2S301,80,254,80z M254,222.1
			c-31.4,0-57-25.5-57-57c0-31.4,25.5-57,57-57c31.4,0,56.9,25.5,56.9,57C311,196.5,285.4,222.1,254,222.1z"/>
	</g>
</g>
</svg>